<svg xmlns="http://www.w3.org/2000/svg" width="42" height="42" viewBox="0 0 42 42" fill="none">
  <path d="M20.7953 5.26225L21 5.25C21.4286 5.25006 21.8423 5.40742 22.1627 5.69225C22.483 5.97708 22.6876 6.36956 22.7378 6.79525L22.75 7V19.25H35C35.4286 19.2501 35.8423 19.4074 36.1627 19.6923C36.483 19.9771 36.6876 20.3696 36.7378 20.7953L36.75 21C36.7499 21.4286 36.5926 21.8423 36.3077 22.1627C36.0229 22.483 35.6304 22.6876 35.2048 22.7378L35 22.75H22.75V35C22.7499 35.4286 22.5926 35.8423 22.3077 36.1627C22.0229 36.483 21.6304 36.6876 21.2047 36.7378L21 36.75C20.5714 36.7499 20.1577 36.5926 19.8373 36.3077C19.517 36.0229 19.3124 35.6304 19.2622 35.2048L19.25 35V22.75H7C6.57137 22.7499 6.15766 22.5926 5.83735 22.3077C5.51704 22.0229 5.3124 21.6304 5.26225 21.2047L5.25 21C5.25006 20.5714 5.40742 20.1577 5.69225 19.8373C5.97708 19.517 6.36956 19.3124 6.79525 19.2622L7 19.25H19.25V7C19.2501 6.57137 19.4074 6.15766 19.6923 5.83735C19.9771 5.51704 20.3696 5.3124 20.7953 5.26225Z" fill="black"/>
</svg>